<?xml version="1.0" encoding="utf-8"?>
<!-- Generator: Adobe Illustrator 23.0.3, SVG Export Plug-In . SVG Version: 6.00 Build 0)  -->
<svg version="1.1" id="Layer_1" xmlns="http://www.w3.org/2000/svg" xmlns:xlink="http://www.w3.org/1999/xlink" x="0px" y="0px"
	 viewBox="0 0 100 96" style="enable-background:new 0 0 100 96;" xml:space="preserve">
<style type="text/css">
	.st0{fill-rule:evenodd;clip-rule:evenodd;fill:#009EA7;}
	.st1{fill-rule:evenodd;clip-rule:evenodd;fill:#093475;}
</style>
<path class="st0" d="M100,71c0,3.7-1.3,5-5,5H60c0.4,6.7,3.1,10.1,8.3,10.1h3.3c2.8,0,4.3,2.2,4.3,4.9s-1.6,5-4.3,5H28.3
	c-2.8,0-4.3-2.3-4.3-5s1.6-4.9,4.3-4.9h3.3c5.2,0,7.9-3.4,8.3-10.1H5c-3.7,0-5-1.3-5-5V5c0-3.7,1.3-5,5-5h90c3.7,0,5,1.3,5,5v59.2
	l0,0V71z M28,89c-0.9,0-1.3,1.1-1.3,2s0.4,2,1.3,2h44c0.9,0,1.3-1.1,1.3-2s-0.4-2-1.3-2H28z M60.2,86.1c-2.1-2.3-3.3-5.6-3.5-9.9
	H43.3c-0.2,4.3-1.5,7.7-3.5,9.9H60.2L60.2,86.1z M97,5c0-1.8-0.2-2-2-2H5C3.2,3,3,3.2,3,5v58h4V9c0.1-1,1-1.9,2-2h82
	c1,0.1,1.9,1,2,2v54h4V5z M10,10v53h80V10H10z M97,66H3v5c0,1.8,0.2,2,2,2h90c1.8,0,2-0.2,2-2V66z"/>
<path id="Shape_1_copy" class="st1" d="M55,55V19.4c3.4,1.6,5.3,3.6,5.7,5.9c1.5,0.2,2.3,1.3,2.2,3.3V55H55z M62.2,44.1
	c0-0.1-0.1-0.3-0.3-0.3h-2.2c-0.1,0-0.3,0.1-0.3,0.3v0.8c0,0.1,0.1,0.3,0.3,0.3h0.4v5c0,1-0.3,1.5-0.9,1.5c-0.6,0-0.9-0.5-1-1.4
	v-5.1h0.2c0.1,0,0.3-0.1,0.3-0.3v-0.8c0-0.1-0.1-0.3-0.3-0.3h-2.2c-0.1,0-0.3,0.1-0.3,0.3v0.8c0,0.1,0.1,0.3,0.3,0.3h0.6v5.2
	c0,0.1,0,0.3,0,0.4c0.1,1.2,1.2,2,2.4,1.9c0,0,0,0,0,0c0.2,0,0.3,0,0.5,0c1.1-0.2,1.9-1.2,1.8-2.3c0,0,0,0,0,0v-5.2H62
	c0.1,0,0.3-0.1,0.3-0.3L62.2,44.1L62.2,44.1z M45.8,18.9c1.3-0.7,2.7-1.4,4.1-1.9c1.5,0.5,2.9,1.1,4.2,2v36h-8.3L45.8,18.9
	L45.8,18.9z M47,52.6c0,0.1,0.1,0.3,0.3,0.3h1c0,0,0,0,0,0h0.9c0,0,0,0,0,0h0.4l0,0c2.2,0.1,3.3-0.8,3.4-2.7c0-0.9-0.4-1.7-1.2-2.2
	c0.5-0.5,0.8-1.3,0.7-2c0-1.3-0.8-2-2.3-2.1h-2.9c-0.1,0-0.3,0.1-0.3,0.3v0.8c0,0.1,0.1,0.3,0.3,0.3H48v6.3h-0.7
	c-0.1,0-0.3,0.1-0.3,0.3L47,52.6L47,52.6z M50.9,46.5c0.1,0.6-0.4,1.1-1,1.2c-0.1,0-0.3,0-0.4,0v-2.7c0.7-0.1,1.3,0.3,1.4,1
	C50.9,46.1,50.9,46.3,50.9,46.5L50.9,46.5z M51.1,50.2c0,0.1,0,0.2,0,0.3c0,0.6-0.5,1.1-1.1,1.1h-0.5v-2.9c0.7-0.2,1.5,0.3,1.6,1
	C51.2,49.8,51.2,50,51.1,50.2z M37,28.6c0-2,0.7-3.1,2.2-3.3c0.5-2.3,2.4-4.3,5.7-5.9V55h-8V28.6z M37.9,44.9c0,0.1,0.1,0.3,0.3,0.3
	h0.7v6.3h-0.7c-0.1,0-0.3,0.1-0.3,0.3v0.8c0,0.1,0.1,0.3,0.3,0.3h2.7c0.1,0,0.3-0.1,0.3-0.3v-0.8c0-0.1-0.1-0.3-0.3-0.3h-0.7V48
	l1.7,4.5h0c0.1,0.2,0.2,0.3,0.4,0.3c0,0,0.1,0,0.1,0c0,0,0,0,0,0h0.8c0.1,0,0.3-0.1,0.3-0.3v-7.4h0.5c0.1,0,0.3-0.1,0.3-0.3v-0.8
	c0-0.1-0.1-0.3-0.3-0.3h-2.2c-0.1,0-0.3,0.1-0.3,0.3v0.8c0,0.1,0.1,0.3,0.3,0.3h0.5V49l-1.8-4.8c-0.1-0.2-0.3-0.3-0.4-0.3h-1.8
	c-0.1,0-0.3,0.1-0.3,0.3L37.9,44.9L37.9,44.9z"/>
</svg>
