<?xml version="1.0" encoding="utf-8"?>
<!-- Generator: Adobe Illustrator 23.0.2, SVG Export Plug-In . SVG Version: 6.00 Build 0)  -->
<svg version="1.1" id="Layer_1" xmlns="http://www.w3.org/2000/svg" xmlns:xlink="http://www.w3.org/1999/xlink" x="0px" y="0px"
	 viewBox="0 0 100 82" style="enable-background:new 0 0 100 82;" xml:space="preserve">
<style type="text/css">
	.st0{fill-rule:evenodd;clip-rule:evenodd;fill:#093475;}
	.st1{fill-rule:evenodd;clip-rule:evenodd;fill:#009EA7;}
</style>
<path id="Shape_10_copy" class="st0" d="M99.3,54.1c-0.8,0.6-1.9,0.5-2.5-0.3c0,0,0,0,0,0l-7-9.5c-1.1,9.5-5.4,18.5-12.1,25.3
	C69.9,77.5,59.2,82,48.1,82c-1,0-1.8-0.9-1.8-1.9c0-1,0.8-1.8,1.8-1.8c19.8,0,36.1-15.5,38.1-35.3l-10.3,7.9
	c-0.8,0.6-1.9,0.5-2.5-0.3c0,0,0,0,0,0c-0.6-0.8-0.5-2,0.4-2.6l13.4-10.3l0,0c0.1-0.1,0.2-0.1,0.2-0.2c0,0,0.1,0,0.1,0c0,0,0,0,0,0
	c0.4-0.2,0.8-0.2,1.2-0.1c0,0,0.1,0,0.1,0s0.1,0,0.1,0c0.3,0.1,0.6,0.3,0.9,0.6c0,0,0,0,0,0l10,13.6
	C100.2,52.3,100.1,53.5,99.3,54.1z M51.9,3.8C32.3,3.8,15.8,19.3,13.8,39l10.3-7.9c0.8-0.6,1.9-0.5,2.5,0.3c0,0,0,0,0,0
	c0.6,0.8,0.5,2-0.4,2.6L12.9,44.5l0,0c-0.3,0.2-0.6,0.3-1,0.4c0,0-0.1,0-0.1,0c-0.1,0-0.1,0-0.2,0c-0.5-0.1-1-0.3-1.3-0.7l0,0
	l-10-13.6c-0.6-0.8-0.5-2,0.4-2.6c0.8-0.6,1.9-0.5,2.5,0.3c0,0,0,0,0,0l7,9.5c1.1-9.6,5.4-18.6,12.3-25.5C30.3,4.4,40.9,0,51.9,0
	c1,0,1.9,0.8,1.9,1.9S53,3.8,51.9,3.8z"/>
<path class="st1" d="M51.8,39.2V21.5c5.4,0.7,9.5,4.4,9.5,8.8c0,1,0.8,1.8,1.8,1.8c1,0,1.8-0.8,1.8-1.8c0-6.4-5.7-11.8-13.1-12.5
	v-3.6c0-1-0.8-1.9-1.8-1.9c-1,0-1.9,0.8-1.9,1.8c0,0,0,0.1,0,0.1v3.6C40.8,18.5,35,23.8,35,30.2c0,3.6,1.7,6.9,4.5,9.1
	c2.5,2,5.5,3.2,8.6,3.5v17.7c-5.4-0.7-9.5-4.4-9.5-8.8c0-1-0.8-1.8-1.8-1.8c-1,0-1.8,0.8-1.8,1.8c0,6.4,5.7,11.8,13.1,12.5v3.6
	c0,1,0.8,1.9,1.8,1.9c1,0,1.9-0.8,1.9-1.8c0,0,0-0.1,0-0.1v-3.6C59.2,63.5,65,58.2,65,51.8S59.2,40,51.8,39.2z M48.2,39
	c-5.4-0.7-9.5-4.3-9.5-8.8h0c0-4.4,4.1-8.1,9.5-8.8V39z M51.8,60.5V43c5.4,0.7,9.5,4.3,9.5,8.8C61.3,56.2,57.2,59.8,51.8,60.5z"/>
</svg>
