<svg version="1.1" id="Слой_1" xmlns="http://www.w3.org/2000/svg" xmlns:xlink="http://www.w3.org/1999/xlink" x="0px" y="0px" viewBox="0 0 16 23" style="enable-background:new 0 0 16 23;" xml:space="preserve">
			<style type="text/css">
				.st0 {
					fill: #E4BD63;
				}
			</style>
			<path class="st0" d="M2.4,23C1.1,23,0,21.9,0,20.6V2.4C0,1.1,1.1,0,2.4,0h11.3C14.9,0,16,1.1,16,2.4v18.3c0,1.3-1.1,2.4-2.4,2.4H2.4
			z M1.9,2.4v18.3c0,0.2,0.2,0.4,0.4,0.4h11.3c0.2,0,0.4-0.2,0.4-0.4c0,0,0,0,0,0V2.4c0-0.2-0.2-0.4-0.4-0.4H11c0,0.5-0.4,1-1,1
			c0,0,0,0,0,0H6c-0.5,0-1-0.4-1-1c0,0,0,0,0,0H2.4C2.1,1.9,1.9,2.1,1.9,2.4z M6,20.1c-0.5,0-1-0.4-1-1s0.4-1,1-1l0,0H10
			c0.5,0,1,0.4,1,1s-0.4,1-1,1H6z"></path>
		</svg>