<?xml version="1.0" encoding="utf-8"?>
<!-- Generator: Adobe Illustrator 23.0.2, SVG Export Plug-In . SVG Version: 6.00 Build 0)  -->
<svg version="1.1" id="Layer_1" xmlns="http://www.w3.org/2000/svg" xmlns:xlink="http://www.w3.org/1999/xlink" x="0px" y="0px"
	 viewBox="0 0 100 92" style="enable-background:new 0 0 100 92;" xml:space="preserve">
<style type="text/css">
	.st0{fill-rule:evenodd;clip-rule:evenodd;fill:#009EA7;}
	.st1{fill-rule:evenodd;clip-rule:evenodd;fill:#093475;}
</style>
<path id="Rectangle_9_copy" class="st0" d="M99,92H1c-0.6,0-1-0.4-1-1v-1.7c0-0.6,0.4-1,1-1h8.5V1.7c0-0.9,0.8-1.7,1.7-1.7l0,0H50
	c0.9,0,1.7,0.8,1.7,1.7l0,0v13.2h37.1c0.9,0,1.7,0.8,1.7,1.7l0,0v71.7H99c0.6,0,1,0.4,1,1V91C100,91.6,99.6,92,99,92z M48.3,3.4
	H12.9v84.9h35.4V3.4z M87.1,18.3H51.7v70h35.4L87.1,18.3L87.1,18.3z M55.9,43.2c-0.9,0-1.7-0.8-1.7-1.7s0.8-1.7,1.7-1.7h11.8V27.7
	H55.9c-0.9,0.1-1.7-0.7-1.8-1.6s0.7-1.7,1.6-1.8c0.1,0,0.1,0,0.2,0h26.9c0.9-0.1,1.7,0.7,1.8,1.6S84,27.7,83,27.7
	c-0.1,0-0.1,0-0.2,0H71.1v12.1h11.8c0.9,0,1.7,0.8,1.7,1.7s-0.8,1.7-1.7,1.7H71.1v12.1h11.8c0.9,0,1.7,0.8,1.7,1.7s-0.8,1.7-1.7,1.7
	H55.9c-0.9,0-1.7-0.8-1.7-1.7s0.8-1.7,1.7-1.7h11.8V43.2L55.9,43.2L55.9,43.2z M44.1,55.3c0.9,0,1.7,0.8,1.7,1.7s-0.8,1.7-1.7,1.7
	l0,0H17.2c-0.9,0-1.7-0.8-1.7-1.7s0.8-1.7,1.7-1.7h11.8V43.2H17.2c-0.9,0-1.7-0.8-1.7-1.7s0.8-1.7,1.7-1.7h11.8V27.7H17.2
	c-0.9,0.1-1.7-0.7-1.8-1.6s0.7-1.7,1.6-1.8c0.1,0,0.1,0,0.2,0h11.8V12.2H17.2c-0.9,0-1.7-0.8-1.7-1.7s0.8-1.7,1.7-1.7h26.9
	c0.9,0,1.7,0.8,1.7,1.7s-0.8,1.7-1.7,1.7H32.3v12.1h11.8c0.9-0.1,1.7,0.7,1.8,1.6s-0.7,1.7-1.6,1.8c-0.1,0-0.1,0-0.2,0H32.3v12.1
	h11.8c0.9,0,1.7,0.8,1.7,1.7s-0.8,1.7-1.7,1.7H32.3v12.1L44.1,55.3L44.1,55.3z"/>
<path class="st1" d="M76.1,69.8H62.6v18.6h-3.4V68c0-0.9,0.8-1.7,1.7-1.7l0,0h16.9c0.9,0,1.7,0.8,1.7,1.7l0,0v20.3h-3.4L76.1,69.8
	L76.1,69.8z"/>
<path class="st1" d="M37.4,69.8H23.9v18.6h-3.4V68c0-0.9,0.8-1.7,1.7-1.7l0,0h16.9c0.9,0,1.7,0.8,1.7,1.7l0,0v20.3h-3.4L37.4,69.8
	L37.4,69.8z"/>
</svg>
