<svg xmlns="http://www.w3.org/2000/svg" width="52" height="92" viewBox="0 0 52 92">
  <g id="Group_4" data-name="Group 4" transform="translate(-1622 -828)">
    <path id="Rounded_Rectangle_7_copy" data-name="Rounded Rectangle 7 copy" d="M1627.394,920a5.353,5.353,0,0,1-5.395-5.308V833.307a5.353,5.353,0,0,1,5.395-5.307h41.211a5.283,5.283,0,0,1,5.395,5.307v81.384a5.352,5.352,0,0,1-5.395,5.308ZM1625,833v82a2.145,2.145,0,0,0,2,2h42a2.146,2.146,0,0,0,2-2V833a2.146,2.146,0,0,0-2-2h-42A2.146,2.146,0,0,0,1625,833Zm14.5,82a1.5,1.5,0,1,1,0-3h17a1.5,1.5,0,0,1,0,3Zm24-78a1.5,1.5,0,0,1,0-3h3a1.5,1.5,0,0,1,0,3Z" fill="#009ea7"/>
    <path id="Shape_1_copy" data-name="Shape 1 copy" d="M1643.81,892V855.879a30.11,30.11,0,0,1,4.066-1.876,18.582,18.582,0,0,1,4.227,1.973V892Zm3.758-2.185v0q3.287.185,3.4-2.682a2.311,2.311,0,0,0-1.22-2.151,2.556,2.556,0,0,0,.736-2.036q-.019-1.887-2.265-2.088h-2.937a.267.267,0,0,0-.263.266v.778a.267.267,0,0,0,.263.266h.729v6.337h-.73a.266.266,0,0,0-.263.266v.775a.267.267,0,0,0,.263.266h1.015c.009,0,.014.009.022.009h.869c.008,0,.014-.009.023-.009Zm5.455,2.182V856.423q5.04,2.421,5.74,5.891,2.283.242,2.234,3.307V892Zm.959-10.87v.776a.267.267,0,0,0,.263.266h.572v5.177a2.255,2.255,0,0,0,.008.426,2.163,2.163,0,0,0,2.395,1.913,2.012,2.012,0,0,0,.482,0,2.053,2.053,0,0,0,1.756-2.3s0-.005,0-.009v-5.2h.509a.268.268,0,0,0,.263-.266v-.776a.268.268,0,0,0-.263-.266h-2.212a.267.267,0,0,0-.263.266v.776a.267.267,0,0,0,.263.266h.37v5.037q.032,1.562-.852,1.518c-.588,0-.906-.484-.974-1.42v-5.135h.156a.268.268,0,0,0,.263-.266v-.776a.268.268,0,0,0-.263-.266h-2.212A.267.267,0,0,0,1653.982,881.13ZM1635,892V865.621q-.055-3.066,2.234-3.307.7-3.471,5.74-5.891V892Zm5.224-2.181c.043,0,.081-.008.122-.012.009,0,.013.009.023.01h.766a.267.267,0,0,0,.263-.266v-7.38h.46a.268.268,0,0,0,.263-.266v-.776a.268.268,0,0,0-.263-.266h-2.212a.267.267,0,0,0-.263.266v.776a.267.267,0,0,0,.263.266h.461v3.794l-1.783-4.808a.5.5,0,0,0-.442-.294h-1.768a.268.268,0,0,0-.263.266v.778a.268.268,0,0,0,.263.266h.729v6.337h-.729a.267.267,0,0,0-.263.266v.775a.268.268,0,0,0,.263.266h2.75a.267.267,0,0,0,.263-.266v-.775a.266.266,0,0,0-.263-.266h-.728v-3.493l1.687,4.522-.019,0A.479.479,0,0,0,1640.223,889.819Zm7.81-1.308h-.536v-2.927q1.706-.054,1.644,1.581a1.116,1.116,0,0,1-1.08,1.347Zm-.536-3.843v-2.733c1-.014,1.456.5,1.36,1.56a1.059,1.059,0,0,1-1.193,1.179Q1647.583,884.674,1647.5,884.669Z" fill="#093475"/>
  </g>
</svg>
